<svg id="visual" viewBox="0 0 900 600" width="900" height="600" xmlns="http://www.w3.org/2000/svg" xmlns:xlink="http://www.w3.org/1999/xlink" version="1.1"><path d="M0 103L13.7 94C27.3 85 54.7 67 82 63C109.3 59 136.7 69 163.8 79C191 89 218 99 245.2 101C272.3 103 299.7 97 327 89C354.3 81 381.7 71 409 72C436.3 73 463.7 85 491 92C518.3 99 545.7 101 573 100C600.3 99 627.7 95 654.8 88C682 81 709 71 736.2 70C763.3 69 790.7 77 818 89C845.3 101 872.7 117 886.3 125L900 133L900 0L886.3 0C872.7 0 845.3 0 818 0C790.7 0 763.3 0 736.2 0C709 0 682 0 654.8 0C627.7 0 600.3 0 573 0C545.7 0 518.3 0 491 0C463.7 0 436.3 0 409 0C381.7 0 354.3 0 327 0C299.7 0 272.3 0 245.2 0C218 0 191 0 163.8 0C136.7 0 109.3 0 82 0C54.7 0 27.3 0 13.7 0L0 0Z" fill="#334799"></path><path d="M0 211L13.7 209C27.3 207 54.7 203 82 208C109.3 213 136.7 227 163.8 224C191 221 218 201 245.2 188C272.3 175 299.7 169 327 160C354.3 151 381.7 139 409 143C436.3 147 463.7 167 491 185C518.3 203 545.7 219 573 219C600.3 219 627.7 203 654.8 200C682 197 709 207 736.2 208C763.3 209 790.7 201 818 209C845.3 217 872.7 241 886.3 253L900 265L900 131L886.3 123C872.7 115 845.3 99 818 87C790.7 75 763.3 67 736.2 68C709 69 682 79 654.8 86C627.7 93 600.3 97 573 98C545.7 99 518.3 97 491 90C463.7 83 436.3 71 409 70C381.7 69 354.3 79 327 87C299.7 95 272.3 101 245.2 99C218 97 191 87 163.8 77C136.7 67 109.3 57 82 61C54.7 65 27.3 83 13.7 92L0 101Z" fill="#223684"></path><path d="M0 367L13.7 359C27.3 351 54.7 335 82 341C109.3 347 136.7 375 163.8 378C191 381 218 359 245.2 352C272.3 345 299.7 353 327 361C354.3 369 381.7 377 409 371C436.3 365 463.7 345 491 343C518.3 341 545.7 357 573 347C600.3 337 627.7 301 654.8 308C682 315 709 365 736.2 385C763.3 405 790.7 395 818 403C845.3 411 872.7 437 886.3 450L900 463L900 263L886.3 251C872.7 239 845.3 215 818 207C790.7 199 763.3 207 736.2 206C709 205 682 195 654.8 198C627.7 201 600.3 217 573 217C545.7 217 518.3 201 491 183C463.7 165 436.3 145 409 141C381.7 137 354.3 149 327 158C299.7 167 272.3 173 245.2 186C218 199 191 219 163.8 222C136.7 225 109.3 211 82 206C54.7 201 27.3 205 13.7 207L0 209Z" fill="#0d2570"></path><path d="M0 445L13.7 435C27.3 425 54.7 405 82 410C109.3 415 136.7 445 163.8 446C191 447 218 419 245.2 411C272.3 403 299.7 415 327 426C354.3 437 381.7 447 409 438C436.3 429 463.7 401 491 397C518.3 393 545.7 413 573 410C600.3 407 627.7 381 654.8 388C682 395 709 435 736.2 449C763.3 463 790.7 451 818 456C845.3 461 872.7 483 886.3 494L900 505L900 461L886.3 448C872.7 435 845.3 409 818 401C790.7 393 763.3 403 736.2 383C709 363 682 313 654.8 306C627.7 299 600.3 335 573 345C545.7 355 518.3 339 491 341C463.7 343 436.3 363 409 369C381.7 375 354.3 367 327 359C299.7 351 272.3 343 245.2 350C218 357 191 379 163.8 376C136.7 373 109.3 345 82 339C54.7 333 27.3 349 13.7 357L0 365Z" fill="#042262"></path><path d="M0 601L13.7 601C27.3 601 54.7 601 82 601C109.3 601 136.7 601 163.8 601C191 601 218 601 245.2 601C272.3 601 299.7 601 327 601C354.3 601 381.7 601 409 601C436.3 601 463.7 601 491 601C518.3 601 545.7 601 573 601C600.3 601 627.7 601 654.8 601C682 601 709 601 736.2 601C763.3 601 790.7 601 818 601C845.3 601 872.7 601 886.3 601L900 601L900 503L886.3 492C872.7 481 845.3 459 818 454C790.7 449 763.3 461 736.2 447C709 433 682 393 654.8 386C627.7 379 600.3 405 573 408C545.7 411 518.3 391 491 395C463.7 399 436.3 427 409 436C381.7 445 354.3 435 327 424C299.7 413 272.3 401 245.2 409C218 417 191 445 163.8 444C136.7 443 109.3 413 82 408C54.7 403 27.3 423 13.7 433L0 443Z" fill="#011e53"></path></svg>